<svg data-v-6805eed4="" version="1.0" xmlns="http://www.w3.org/2000/svg" xmlns:xlink="http://www.w3.org/1999/xlink" width="680" height="500" viewBox="0 0 340.000000 250.000000" preserveAspectRatio="xMidYMid meet" color-interpolation-filters="sRGB" style="">   <g data-v-6805eed4="" fill="#b722ff" class="icon-text-wrapper icon-svg-group iconsvg" transform="translate(52.203773498535156,95.05420112609863)"><g class="iconsvg-imagesvg" transform="translate(0,0)" mask="url(#3ab03140-d340-4636-b0ad-f5beadebaa91)"><g><rect fill="#b722ff" fill-opacity="0" stroke-width="2" x="0" y="0" width="60" height="59.89159621085834" class="image-rect"></rect> <svg filter="url(#colors8562865069)" x="0" y="0" width="60" height="59.89159621085834" filtersec="colorsf3993572938" class="image-svg-svg primary" style="overflow: visible;"><svg xmlns="http://www.w3.org/2000/svg" viewBox="-0.6000000000000001 -0.6000000000000001 59.5 59.4"><path d="M36.4 21.8c4 4 4 10.5 0 14.5s-10.5 4-14.5 0-4-10.5 0-14.5m14.5 0L22.5 7.9 1.4 29.1l27.7 27.7 27.7-27.7L29.1 1.4m7.3 34.9c4-4 4-10.5 0-14.5s-10.5-4-14.5 0-4 10.5 0 14.5m0 0l13.9 13.9 21.1-21.1L29.2 1.4 1.4 29.1l27.7 27.7m-7.2-35L8 35.7m28.4.6l13.9-13.9" fill="none" stroke="#282828" stroke-width="2" stroke-miterlimit="10"></path></svg></svg> <defs><filter id="colors8562865069"><feColorMatrix type="matrix" values="0 0 0 0 0.71484375  0 0 0 0 0.1328125  0 0 0 0 0.99609375  0 0 0 1 0" class="icon-fecolormatrix"></feColorMatrix></filter> <filter id="colorsf3993572938"><feColorMatrix type="matrix" values="0 0 0 0 0.99609375  0 0 0 0 0.99609375  0 0 0 0 0.99609375  0 0 0 1 0" class="icon-fecolormatrix"></feColorMatrix></filter> <filter id="colorsb3354112994"><feColorMatrix type="matrix" values="0 0 0 0 0  0 0 0 0 0  0 0 0 0 0  0 0 0 1 0" class="icon-fecolormatrix"></feColorMatrix></filter></defs></g><rect v-gra="id" width="72" height="71.89159774780273" transform="translate(-6, -6)" style="pointer-events:none;" fill="url(#taCr7WkBBC6C2WblPaq-0)"></rect></g> <g transform="translate(67,1.5421142578125)"><g data-gra="path-name" fill-rule="" class="tp-name iconsvg-namesvg" transform="translate(0,0)" fill="url(#b7072878-9af8-4754-bd22-67f8cdb4ea37)"><g transform="scale(1)"><g><path d="M14.47-7.26L23.59-7.26Q25.08-7.26 26.11-8.29 27.14-9.32 27.14-10.82L27.14-10.82Q27.14-12.31 26.11-13.34 25.08-14.37 23.59-14.37L23.59-14.37 14.47-14.37Q12.21-14.37 10.22-15.22 8.24-16.07 6.77-17.54 5.3-19 4.45-20.99 3.61-22.97 3.61-25.24L3.61-25.24Q3.61-27.45 4.45-29.43 5.3-31.42 6.77-32.88 8.24-34.35 10.22-35.2 12.21-36.05 14.47-36.05L14.47-36.05 23.59-36.05Q25.85-36.05 27.81-35.2 29.77-34.35 31.24-32.88 32.7-31.42 33.58-29.43 34.45-27.45 34.45-25.24L34.45-25.24Q34.45-25.18 34.4-25.18L34.4-25.18 27.19-25.18Q27.14-25.18 27.14-25.24L27.14-25.24Q27.14-26.68 26.11-27.73 25.08-28.79 23.59-28.79L23.59-28.79 14.47-28.79Q12.98-28.79 11.92-27.73 10.87-26.68 10.87-25.24L10.87-25.24Q10.87-23.74 11.92-22.69 12.98-21.63 14.47-21.63L14.47-21.63 23.59-21.63Q25.85-21.63 27.81-20.78 29.77-19.93 31.24-18.46 32.7-17 33.58-15.01 34.45-13.03 34.45-10.82L34.45-10.82Q34.45-8.55 33.58-6.59 32.7-4.64 31.24-3.14 29.77-1.65 27.81-0.8 25.85 0.05 23.59 0.05L23.59 0.05 14.47 0.05Q12.21 0.05 10.22-0.8 8.24-1.65 6.77-3.14 5.3-4.64 4.45-6.59 3.61-8.55 3.61-10.82L3.61-10.82Q3.61-10.82 3.66-10.82L3.66-10.82 10.87-10.82Q10.87-10.82 10.87-10.82L10.87-10.82Q10.87-9.32 11.92-8.29 12.98-7.26 14.47-7.26L14.47-7.26ZM58.92 0.05L58.92 0.05Q55.47 0.05 52.15-1.26 48.82-2.58 46.2-5.25L46.2-5.25Q43.62-7.83 42.26-11.1 40.89-14.37 40.89-18.03L40.89-18.03Q40.89-21.63 42.26-24.9 43.62-28.17 46.2-30.75L46.2-30.75Q48.82-33.42 52.15-34.74 55.47-36.05 58.94-36.05 62.42-36.05 65.74-34.74 69.06-33.42 71.69-30.75L71.69-30.75Q71.74-30.75 71.69-30.7L71.69-30.7 66.59-25.6Q66.59-25.6 66.54-25.6L66.54-25.6Q65-27.19 63.01-27.99 61.03-28.79 58.94-28.79 56.86-28.79 54.88-27.99 52.89-27.19 51.35-25.6L51.35-25.6Q49.8-24.1 48.98-22.15 48.15-20.19 48.15-18.03L48.15-18.03Q48.15-15.86 48.98-13.91 49.8-11.95 51.35-10.4L51.35-10.4Q52.89-8.81 54.88-8.03 56.86-7.26 58.94-7.26 61.03-7.26 63.01-8.03 65-8.81 66.54-10.4L66.54-10.4Q66.59-10.4 66.59-10.4L66.59-10.4 71.69-5.3Q71.74-5.25 71.69-5.25L71.69-5.25Q69.06-2.58 65.74-1.26 62.42 0.05 58.92 0.05ZM85.7 0.05L78.49 0.05Q78.44 0.05 78.44 0L78.44 0 78.44-36Q78.44-36.05 78.49-36.05L78.49-36.05 85.7-36.05Q85.7-36.05 85.7-36L85.7-36 85.7 0Q85.7 0.05 85.7 0.05L85.7 0.05ZM112.17 0.05L104.6 0.05 104.55 0 92.96-36 92.96-36.05 93.01-36.05 100.58-36.05 100.58-36 108.36-11.85 116.14-36 116.19-36.05 123.76-36.05 123.76-36.05 123.76-36 112.17 0 112.17 0.05ZM123.86-43.26L131.07-43.26Q131.07-43.26 131.07-43.21L131.07-43.21 131.07-36.05 161.77-36.05 161.82-36.05 161.82-36 157.39-28.79 144.05-7.26 161.77-7.26Q161.82-7.26 161.82-7.21L161.82-7.21 161.82 0Q161.82 0.05 161.77 0.05L161.77 0.05 131.07 0.05 131.02 0 131.02 0 148.79-28.79 131.07-28.79Q131.02-28.79 131.02-28.84L131.02-28.84 131.02-36 123.86-36Q123.81-36 123.81-36L123.81-36 123.81-43.21Q123.81-43.26 123.86-43.26L123.86-43.26Z" transform="translate(-3.6100001335144043, 43.2599983215332)"></path></g> <!----> <!----> <!----> <!----> <!----> <!----> <!----></g></g> <g data-gra="path-slogan" fill-rule="" class="tp-slogan iconsvg-slogansvg" fill="url(#8efea345-7a5a-4f4a-b44d-e05b0fdc6527)" transform="translate(-10.385002136230469,49.30999755859375)"><rect width="0"></rect> <rect x="181.98001098632812" width="0"></rect> <g transform="translate(0,0)"><g transform="scale(1)"><path d="M0.90-7.18L1.88-7.18L1.88 0L0.90 0L0.90-7.18ZM4.71-7.18L8.32-1.37L8.32-7.18L9.26-7.18L9.26 0L8.16 0L4.51-5.81L4.47-5.81L4.47 0L3.53 0L3.53-7.18L4.71-7.18ZM16.01-5.10L16.01-5.10L15.11-5.10Q15.03-6.47 13.30-6.55L13.30-6.55Q11.69-6.51 11.69-5.30L11.69-5.30Q11.69-4.51 12.56-4.40L12.56-4.40L14.60-3.92Q16.21-3.53 16.21-1.96L16.21-1.96Q16.17 0.04 13.38 0.12L13.38 0.12Q11.85 0.12 11.22-0.51L11.22-0.51Q10.44-1.10 10.48-2.32L10.48-2.32L11.42-2.32Q11.46-0.67 13.38-0.63L13.38-0.63Q15.26-0.67 15.30-1.84L15.30-1.84Q15.46-2.83 13.73-3.14L13.73-3.14L12.24-3.45Q10.71-3.88 10.71-5.18L10.71-5.18Q10.83-7.30 13.22-7.38L13.22-7.38Q15.93-7.38 16.01-5.10ZM17.58-7.18L18.56-7.18L18.56 0L17.58 0L17.58-7.18ZM25.59-3.02L23.39-3.02L23.39-3.85L26.53-3.85L26.53 0L25.90 0L25.66-0.90Q24.84 0.08 23.31 0.12L23.31 0.12Q21.86 0.12 21.07-0.63L21.07-0.63Q19.90-1.73 19.93-3.65L19.93-3.65Q20.21-7.22 23.35-7.38L23.35-7.38Q26.02-7.22 26.41-5.02L26.41-5.02L25.47-5.02Q25.08-6.51 23.31-6.55L23.31-6.55Q21.07-6.40 20.95-3.61L20.95-3.61Q20.95-0.63 23.35-0.63L23.35-0.63Q24.21-0.63 24.84-1.10L24.84-1.10Q25.62-1.73 25.59-3.02L25.59-3.02ZM29.00-4.24L32.77-4.24L32.77-7.18L33.75-7.18L33.75 0L32.77 0L32.77-3.34L29.00-3.34L29.00 0L28.02 0L28.02-7.18L29.00-7.18L29.00-4.24ZM37.08-6.36L34.65-6.36L34.65-7.18L40.46-7.18L40.46-6.36L38.02-6.36L38.02 0L37.08 0L37.08-6.36ZM44.26-7.18L45.25-7.18L45.25 0L44.26 0L44.26-7.18ZM48.07-7.18L51.68-1.37L51.68-7.18L52.62-7.18L52.62 0L51.52 0L47.87-5.81L47.84-5.81L47.84 0L46.89 0L46.89-7.18L48.07-7.18ZM55.96-6.36L53.53-6.36L53.53-7.18L59.33-7.18L59.33-6.36L56.90-6.36L56.90 0L55.96 0L55.96-6.36ZM65.89-3.57L65.89-3.57Q65.73-6.40 63.37-6.55L63.37-6.55Q60.98-6.44 60.86-3.57L60.86-3.57Q60.98-0.78 63.37-0.67L63.37-0.67Q65.73-0.82 65.89-3.57ZM66.87-3.57L66.87-3.57Q66.63 0 63.37 0.12L63.37 0.12Q60.08 0 59.84-3.57L59.84-3.57Q60.04-7.30 63.37-7.38L63.37-7.38Q66.63-7.26 66.87-3.57ZM72.64-6.36L70.20-6.36L70.20-7.18L76.01-7.18L76.01-6.36L73.58-6.36L73.58 0L72.64 0L72.64-6.36ZM77.85-4.24L81.62-4.24L81.62-7.18L82.60-7.18L82.60 0L81.62 0L81.62-3.34L77.85-3.34L77.85 0L76.87 0L76.87-7.18L77.85-7.18L77.85-4.24ZM85.19-0.86L89.51-0.86L89.51 0L84.21 0L84.21-7.18L89.43-7.18L89.43-6.36L85.19-6.36L85.19-4.12L89.12-4.12L89.12-3.26L85.19-3.26L85.19-0.86ZM94.73-7.18L98.34-1.37L98.34-7.18L99.28-7.18L99.28 0L98.18 0L94.53-5.81L94.49-5.81L94.49 0L93.55 0L93.55-7.18L94.73-7.18ZM105.52 0L104.81-2.08L101.91-2.08L101.16 0L100.18 0L102.89-7.18L103.99-7.18L106.58 0L105.52 0ZM103.36-6.12L102.22-2.94L104.46-2.94L103.40-6.12L103.36-6.12ZM109.29-6.36L106.85-6.36L106.85-7.18L112.66-7.18L112.66-6.36L110.23-6.36L110.23 0L109.29 0L109.29-6.36ZM118.27-2.67L118.27-7.18L119.25-7.18L119.25-2.55Q119.14 0.04 116.31 0.12L116.31 0.12Q113.68 0.04 113.56-2.39L113.56-2.39L113.56-7.18L114.55-7.18L114.55-2.67Q114.58-0.71 116.35-0.67L116.35-0.67Q118.27-0.71 118.27-2.67L118.27-2.67ZM124.20-3.10L121.84-3.10L121.84 0L120.86 0L120.86-7.18L124.20-7.18Q126.59-7.18 126.59-5.26L126.59-5.26Q126.59-4.08 125.57-3.53L125.57-3.53Q126.44-3.30 126.44-2.16L126.44-2.16L126.51-0.86Q126.47-0.31 126.87-0.16L126.87-0.16L126.87 0L125.65 0Q125.53-0.51 125.49-1.81L125.49-1.81Q125.53-3.10 124.20-3.10L124.20-3.10ZM124.28-6.40L121.84-6.40L121.84-3.92L124.12-3.92Q125.57-3.92 125.57-5.18L125.57-5.18Q125.57-6.40 124.28-6.40L124.28-6.40ZM129.06-0.86L133.38-0.86L133.38 0L128.08 0L128.08-7.18L133.30-7.18L133.30-6.36L129.06-6.36L129.06-4.12L132.99-4.12L132.99-3.26L129.06-3.26L129.06-0.86ZM143.11-3.57L143.11-3.57Q142.96-6.40 140.60-6.55L140.60-6.55Q138.21-6.44 138.09-3.57L138.09-3.57Q138.21-0.78 140.60-0.67L140.60-0.67Q142.96-0.82 143.11-3.57ZM144.09-3.57L144.09-3.57Q143.86 0 140.60 0.12L140.60 0.12Q137.31 0 137.07-3.57L137.07-3.57Q137.27-7.30 140.60-7.38L140.60-7.38Q143.86-7.26 144.09-3.57ZM149.86-3.26L146.33-3.26L146.33 0L145.35 0L145.35-7.18L150.33-7.18L150.33-6.36L146.33-6.36L146.33-4.12L149.86-4.12L149.86-3.26ZM157.04 0L154.14 0L154.14-7.18L157.08-7.18Q159.99-7.02 160.10-3.69L160.10-3.69Q159.95-0.08 157.04 0L157.04 0ZM156.93-6.40L155.12-6.40L155.12-0.82L157.00-0.82Q159.05-0.94 159.12-3.61L159.12-3.61Q159.08-6.32 156.93-6.40L156.93-6.40ZM166.07 0L165.36-2.08L162.46-2.08L161.71 0L160.73 0L163.44-7.18L164.54-7.18L167.13 0L166.07 0ZM163.91-6.12L162.77-2.94L165.01-2.94L163.95-6.12L163.91-6.12ZM169.84-6.36L167.40-6.36L167.40-7.18L173.21-7.18L173.21-6.36L170.78-6.36L170.78 0L169.84 0L169.84-6.36ZM178.82 0L178.12-2.08L175.21-2.08L174.47 0L173.49 0L176.19-7.18L177.29-7.18L179.88 0L178.82 0ZM176.66-6.12L175.53-2.94L177.76-2.94L176.70-6.12L176.66-6.12Z" transform="translate(-0.9025506867233485, 7.37737083060824)"></path></g></g></g></g></g><defs v-gra="od"><linearGradient x1="0" y1="1" x2="0" y2="0" id="8efea345-7a5a-4f4a-b44d-e05b0fdc6527"><stop offset="0%" stop-color="#b722ff"></stop><stop offset="100%" stop-color="#22d4fe"></stop></linearGradient><filter id="42443b3f1de60f6b6fd3b6a9844b4764" filterUnits="objectBoundingBox"><feColorMatrix type="matrix" values="0 0 0 0 0.99609375  0 0 0 0 0.99609375  0 0 0 0 0.99609375  0 0 0 1 0"></feColorMatrix></filter><linearGradient x1="0" y1="1" x2="0" y2="0" id="b7072878-9af8-4754-bd22-67f8cdb4ea37"><stop offset="0%" stop-color="#b722ff"></stop><stop offset="100%" stop-color="#22d4fe"></stop></linearGradient><filter id="42443b3f1de60f6b6fd3b6a9844b4764" filterUnits="objectBoundingBox"><feColorMatrix type="matrix" values="0 0 0 0 0.99609375  0 0 0 0 0.99609375  0 0 0 0 0.99609375  0 0 0 1 0"></feColorMatrix></filter></defs><defs v-gra="id"><filter id="396672da-d97e-4469-9752-005c37a260cf" filterUnits="userSpaceOnUse"><feColorMatrix type="matrix" values="0 0 0 0 0.99609375  0 0 0 0 0.99609375  0 0 0 0 0.99609375  0 0 0 1 0"></feColorMatrix></filter><linearGradient x1="0" y1="1" x2="0" y2="0" id="taCr7WkBBC6C2WblPaq-0"><stop offset="0%" stop-color="#b722ff"></stop><stop offset="100%" stop-color="#22d4fe"></stop></linearGradient><filter id="42443b3f1de60f6b6fd3b6a9844b4764" filterUnits="objectBoundingBox"><feColorMatrix type="matrix" values="0 0 0 0 0.99609375  0 0 0 0 0.99609375  0 0 0 0 0.99609375  0 0 0 1 0"></feColorMatrix></filter></defs><mask v-gra="im" id="3ab03140-d340-4636-b0ad-f5beadebaa91"><g class="iconsvg-imagesvg" filter="url(#396672da-d97e-4469-9752-005c37a260cf)"><g><rect fill="#b722ff" fill-opacity="0" stroke-width="2" x="0" y="0" width="60" height="59.89159621085834" class="image-rect"></rect> <svg x="0" y="0" width="60" height="59.89159621085834" filtersec="colorsf3993572938" class="image-svg-svg primary" style="overflow: visible;"><svg xmlns="http://www.w3.org/2000/svg" viewBox="-0.6000000000000001 -0.6000000000000001 59.5 59.4"><path d="M36.4 21.8c4 4 4 10.5 0 14.5s-10.5 4-14.5 0-4-10.5 0-14.5m14.5 0L22.5 7.9 1.4 29.1l27.7 27.7 27.7-27.7L29.1 1.4m7.3 34.9c4-4 4-10.5 0-14.5s-10.5-4-14.5 0-4 10.5 0 14.5m0 0l13.9 13.9 21.1-21.1L29.2 1.4 1.4 29.1l27.7 27.7m-7.2-35L8 35.7m28.4.6l13.9-13.9" fill="none" stroke="#282828" stroke-width="2" stroke-miterlimit="10"></path></svg></svg> <defs><filter id="colors8562865069"><feColorMatrix type="matrix" values="0 0 0 0 0.71484375  0 0 0 0 0.1328125  0 0 0 0 0.99609375  0 0 0 1 0" class="icon-fecolormatrix"></feColorMatrix></filter> <filter id="colorsf3993572938"><feColorMatrix type="matrix" values="0 0 0 0 0.99609375  0 0 0 0 0.99609375  0 0 0 0 0.99609375  0 0 0 1 0" class="icon-fecolormatrix"></feColorMatrix></filter> <filter id="colorsb3354112994"><feColorMatrix type="matrix" values="0 0 0 0 0  0 0 0 0 0  0 0 0 0 0  0 0 0 1 0" class="icon-fecolormatrix"></feColorMatrix></filter></defs></g></g></mask></svg>